<?xml version="1.0" encoding="UTF-8" standalone="no"?>
<!-- Created with Inkscape (http://www.inkscape.org/) -->

<svg
   version="1.1"
   id="svg1"
   width="1024"
   height="1024"
   viewBox="0 0 1024 1024"
   sodipodi:docname="DALL·E 2024-11-11 00.24.00 - A sleek, elegant logo for an app called 'FileFlow'. The logo features a simple grey folder icon with sound waves emitting from it in multiple bright c.webp"
   xmlns:inkscape="http://www.inkscape.org/namespaces/inkscape"
   xmlns:sodipodi="http://sodipodi.sourceforge.net/DTD/sodipodi-0.dtd"
   xmlns="http://www.w3.org/2000/svg"
   xmlns:svg="http://www.w3.org/2000/svg">
  <defs
     id="defs1" />
  <sodipodi:namedview
     id="namedview1"
     pagecolor="#ffffff"
     bordercolor="#000000"
     borderopacity="0.25"
     inkscape:showpageshadow="2"
     inkscape:pageopacity="0.0"
     inkscape:pagecheckerboard="0"
     inkscape:deskcolor="#d1d1d1"
     inkscape:zoom="0.79199219"
     inkscape:cx="571.97534"
     inkscape:cy="436.24168"
     inkscape:window-width="1920"
     inkscape:window-height="1008"
     inkscape:window-x="0"
     inkscape:window-y="0"
     inkscape:window-maximized="1"
     inkscape:current-layer="g2" />
  <g
     inkscape:groupmode="layer"
     inkscape:label="Image"
     id="g1">
    <g
       id="g2"
       transform="translate(-10.531973,-36.765338)">
      <path
         style="fill:#d2d449;stroke-width:2.05001"
         d="m 562.89816,740.05707 c -0.28187,-37.48944 -0.58536,-117.05518 -0.6744,-176.81278 -0.15251,-102.3196 -2.43112,-173.42658 -5.66106,-176.65654 -0.78693,-0.78692 -5.51061,-1.2196 -10.49706,-0.96146 -7.47444,0.38689 -9.48389,-0.31103 -11.4448,-3.97501 -3.11149,-5.81388 2.64043,-13.97469 12.09291,-17.15733 3.65854,-1.2318 7.43286,-3.50333 8.38741,-5.04782 2.36887,-3.83292 19.49509,-1.82112 24.71553,2.90332 5.56391,5.03525 7.55996,12.45301 12.13448,45.09461 3.62174,25.84313 4.06501,42.16845 4.45282,164.00025 0.23687,74.41512 0.41401,139.07684 0.3936,143.69271 -0.0204,4.6159 -2.39216,15.68591 -5.27065,24.60004 -2.87847,8.91415 -5.8443,23.0857 -6.59068,31.49237 -1.39925,15.75993 -4.56041,24.38067 -11.87273,32.37773 -9.43607,10.3197 -9.61854,9.17889 -10.16537,-63.55009 z m -64.91352,29.99324 c -4.96781,-6.31555 -4.99452,-11.08158 -0.18757,-33.47653 1.89553,-8.83121 1.74638,-19.56489 -0.71222,-51.25008 -2.30655,-29.72599 -3.01166,-67.08668 -2.72955,-144.62944 l 0.38035,-104.55016 5.79217,-11.79543 c 3.94101,-8.02568 8.52719,-13.66866 14.35002,-17.65667 9.998,-6.84761 16.97082,-9.39537 18.58141,-6.78936 4.17725,6.75891 5.09247,150.56165 1.20731,189.6964 -2.64115,26.60391 -2.53771,102.02926 0.17179,125.34549 1.17926,10.14751 1.52098,26.09487 0.75939,35.43857 -1.31439,16.12588 -1.68997,17.14638 -7.39613,20.09716 -3.30629,1.70975 -10.42063,3.63085 -15.80965,4.26908 -8.9877,1.06447 -10.17947,0.67577 -14.40729,-4.69903 z m -38.9179,-200.50824 c -5.53264,-15.67193 -8.19373,-18.3955 -16.24563,-16.627 -5.36133,1.17754 -6.07776,0.70607 -7.16158,-4.713 -0.66236,-3.3118 -1.78171,-16.50341 -2.48742,-29.31467 l -1.28309,-23.2932 11.17402,-11.78752 c 6.1457,-6.48314 11.74064,-11.78753 12.43322,-11.78753 1.36364,0 6.67735,11.63214 9.83294,21.52504 2.33839,7.33095 2.3837,82.22339 0.0523,86.38943 -1.11012,1.98367 -3.10457,-1.29843 -6.31473,-10.39155 z m -80.99756,-24.02019 c 1.33539,-2.16072 8.45204,-2.31784 9.7437,-0.21511 0.51945,0.84563 -1.70408,1.6343 -4.9412,1.7526 -3.23713,0.11824 -5.39825,-0.57356 -4.8025,-1.53749 z"
         id="path9" />
      <path
         style="fill:#6aaca5;stroke-width:2.05001"
         d="m 640.189,722.95153 c -4.45678,-1.55114 -8.22195,-2.83415 -8.36704,-2.85112 -0.14514,-0.0164 -1.437,-2.86326 -2.87093,-6.32508 -2.00871,-4.84946 -2.65399,-36.27563 -2.8112,-136.91327 -0.18984,-121.55641 0.0469,-131.00318 3.41339,-136.15466 4.18428,-6.40287 17.49584,-13.78831 24.85212,-13.78831 4.99927,0 13.64188,8.39602 13.47339,13.08898 -0.0451,1.25733 -1.45835,-0.25083 -3.14045,-3.35147 -1.68214,-3.10063 -4.29161,-5.63751 -5.79881,-5.63751 -2.27986,0 -2.26919,1.98103 0.0633,11.78752 1.54209,6.48314 3.40519,19.87399 4.14015,29.75744 0.73497,9.88345 1.58605,17.72018 1.89127,17.41496 0.30523,-0.30523 1.13083,-9.27958 1.83465,-19.943 0.70385,-10.66344 1.6987,-19.80705 2.21078,-20.31915 0.5121,-0.51208 0.93108,56.46357 0.93108,126.61259 0,137.10533 0.28912,133.19503 -10.56775,142.92211 -6.96372,6.23907 -10.18189,6.85749 -19.25408,3.69997 z m 64.51893,-53.84368 -4.70715,-3.81163 -1.76468,-81.776 c -0.97057,-44.97682 -1.22942,-84.71854 -0.57526,-88.31495 1.2026,-6.6113 9.89064,-15.66184 17.28851,-18.00983 6.36849,-2.02129 17.96319,4.06158 22.0629,11.57475 3.42915,6.28428 3.69235,12.79291 3.32759,82.29061 -0.25744,49.05076 -1.19822,77.89705 -2.68767,82.41014 -3.03073,9.1832 -14.84627,19.44852 -22.3855,19.44852 -3.21837,0 -7.9698,-1.71524 -10.55874,-3.81161 z m 78.30211,-65.29381 c -12.01533,-5.91918 -14.96537,-13.16257 -14.0182,-34.41974 1.43282,-32.15706 10.49876,-43.91156 33.95919,-44.03004 7.34411,-0.0371 9.95394,1.06713 14.81072,6.26632 9.5505,10.22384 12.28446,25.79525 7.88294,44.89763 -2.78205,12.074 -10.68779,22.13149 -21.12069,26.86926 -10.34281,4.69686 -12.7315,4.74313 -21.51396,0.41657 z M 84.734934,182.96872 c 2.040754,-2.255 4.171707,-4.1 4.735464,-4.1 0.563756,0 -0.644702,1.845 -2.685468,4.1 -2.040754,2.255 -4.171707,4.1 -4.735464,4.1 -0.563743,0 0.644714,-1.845 2.685468,-4.1 z"
         id="path5" />
      <path
         style="fill:#e95454;stroke-width:2.05001"
         d="m 439.20511,756.30944 c -5.10406,-4.3903 -5.66554,-6.44542 -7.2269,-26.45094 -3.5807,-45.8796 -3.39329,-214.24936 0.23225,-208.63926 1.09297,1.69124 2.00135,6.88032 2.01862,11.53126 0.0164,4.65094 0.61713,11.38504 1.33305,14.96464 1.18798,5.93989 1.82203,6.3941 7.25898,5.19993 8.04413,-1.7668 10.71342,0.95627 16.21581,16.54245 2.56424,7.26356 5.18794,12.68442 5.83044,12.04638 0.64246,-0.63804 1.69443,-14.2325 2.33765,-30.20987 0.64323,-15.9774 1.28487,18.92027 1.42582,77.55037 0.15088,62.7712 -0.55656,109.69937 -1.72072,114.13802 -2.1454,8.17972 -12.19275,18.08718 -18.3426,18.08718 -2.10562,0 -6.31871,-2.14207 -9.3624,-4.76016 z m 95.9811,-1.38985 c 0,-3.94626 0.4219,-5.56064 0.93753,-3.58752 0.51562,1.97314 0.51562,5.20189 0,7.17502 -0.51563,1.97313 -0.93753,0.35875 -0.93753,-3.5875 z M 495.40078,741.2375 c 0.87479,-4.29058 1.3903,-4.80607 1.9877,-1.98769 0.44362,2.0929 -0.088,4.69971 -1.18111,5.79295 -1.28358,1.28358 -1.5693,-0.0644 -0.80659,-3.80526 z M 372.79559,727.99125 c -11.40946,-6.9385 -12.33524,-12.27367 -12.33524,-71.08707 0,-29.17585 0.60854,-62.64617 1.35233,-74.37846 l 1.35229,-21.33142 9.21812,-7.84283 c 5.48978,-4.67076 10.53948,-7.40324 12.48519,-6.75597 1.79691,0.59779 6.85946,2.28205 11.25009,3.74281 l 7.983,2.65597 -1.3167,59.45009 c -0.72419,32.69755 -1.31839,68.90307 -1.32049,80.45672 l -0.004,21.00663 -7.20451,7.97452 c -8.92212,9.87572 -13.24363,11.1059 -21.46032,6.10901 z m 125.65019,-6.89672 c 0.0118,-6.76501 0.39423,-9.28536 0.85047,-5.60079 0.45625,3.68458 0.44684,9.21958 -0.0208,12.30002 -0.46777,3.08044 -0.84106,0.0658 -0.82956,-6.69923 z m 36.42668,-0.17076 c 0.0984,-2.38815 0.58412,-2.87389 1.23853,-1.23855 0.59218,1.47983 0.51937,3.24798 -0.16175,3.92918 -0.6812,0.68119 -1.16571,-0.5296 -1.0767,-2.69063 z m -38.4976,-27.50427 c 0,-6.20127 0.38431,-8.73814 0.85401,-5.63751 0.46972,3.10062 0.46972,8.17438 0,11.27502 -0.4697,3.10062 -0.85401,0.56374 -0.85401,-5.63751 z m 36.6854,5.125 c 0.0418,-3.38251 0.50122,-4.51808 1.02098,-2.5235 0.51975,1.9946 0.48558,4.7621 -0.076,6.15002 -0.56155,1.38791 -0.9868,-0.24402 -0.94503,-3.62652 z m -243.66511,-5.22829 c -12.31704,-6.13621 -15.89883,-14.74206 -14.39953,-34.59729 1.29124,-17.09963 2.19594,-18.35213 24.91091,-34.48704 15.45605,-10.97873 21.65066,-8.51444 27.68178,11.01205 7.99529,25.88578 3.81191,46.94593 -11.12494,56.00569 -10.29863,6.24653 -17.56451,6.80126 -27.06822,2.06659 z M 494.1102,663.69445 c 0.0418,-3.38251 0.50122,-4.51808 1.02098,-2.5235 0.51976,1.9946 0.48559,4.7621 -0.076,6.15001 -0.56156,1.38792 -0.98681,-0.24401 -0.94503,-3.62651 z"
         id="path4" />
      <path
         style="fill:#16222b;stroke-width:2.05001"
         d="M 100.45048,1011.4423 C 63.918504,998.46215 45.18518,978.9811 32.178308,940.44486 L 27.334844,926.09484 26.711011,589.89433 c -0.44422,-239.38999 0.02845,-339.5966 1.641903,-347.99437 3.217711,-16.749 13.453871,-41.3154 23.730064,-56.95128 13.219584,-20.11442 42.607346,-46.27692 63.133512,-56.20467 10.41661,-5.03813 19.16841,-7.53046 102.76865,-29.266361 86.25867,-22.427069 107.90009,-17.686441 152.93126,33.500191 11.31039,12.85645 23.22521,24.75135 26.47737,26.43311 8.77444,4.53744 21.27481,3.76001 50.54714,-3.14362 49.69498,-11.72013 85.82408,-20.33526 127.76976,-30.46715 23.11378,-5.58307 58.6301,-13.97735 78.92513,-18.65394 20.29502,-4.67659 52.12132,-12.229174 70.7251,-16.783544 24.9494,-6.107842 39.7569,-8.562102 56.43126,-9.353199 20.81614,-0.987606 23.62363,-0.661598 35.45482,4.117254 7.06673,2.854384 15.80522,7.220962 19.41886,9.703537 15.54655,10.680522 28.06458,36.421062 28.12666,57.836212 0.0501,17.23536 0.71112,17.58653 22.52254,11.9633 43.67481,-11.25986 77.11622,-3.20852 105.79623,25.47152 16.57143,16.57147 25.40003,38.04293 25.40003,61.77385 0,9.75404 -6.8733,45.32805 -15.4027,79.71878 -2.7963,11.27502 -8.38302,35.26005 -12.41469,53.30007 -17.32706,77.53059 -21.56544,96.27604 -29.66451,131.20021 -4.70649,20.29503 -11.18857,47.97006 -14.40455,61.50009 -3.21601,13.53002 -7.34965,32.44129 -9.18588,42.02506 -1.83623,9.58376 -6.50177,30.34005 -10.36788,46.12507 -3.86609,15.78503 -8.79534,38.65435 -10.95387,50.82071 -7.64066,43.06558 -33.38332,83.89654 -68.85078,109.20559 -17.93209,12.79607 -29.465,17.31692 -72.70547,28.50017 -20.85878,5.39468 -49.45633,12.86016 -63.55009,16.58993 -14.09377,3.72975 -28.8538,7.38222 -32.80005,8.11656 -15.624,2.90739 -101.69842,24.48792 -140.42521,35.20731 -22.55004,6.24174 -58.98884,15.89361 -80.97512,21.44861 -21.98629,5.55497 -47.35508,12.29797 -56.37509,14.98439 -9.02002,2.68645 -47.76507,13.33244 -86.10013,23.65775 -38.33505,10.32533 -87.68889,23.88558 -109.67517,30.13383 -35.53084,10.0976 -42.59601,11.4576 -63.55009,12.2319 -22.0815,0.8162 -24.65738,0.4869 -40.65954,-5.1989 z m 125.58718,-38.10241 c 37.28869,-10.65901 80.71261,-22.7258 96.49763,-26.81507 15.78503,-4.08924 37.00255,-10.10183 47.15007,-13.36132 25.44509,-8.17318 242.6059,-63.99847 270.60042,-69.56296 21.80216,-4.33363 144.36853,-34.89962 161.63005,-40.30782 25.69804,-8.05145 42.92242,-17.93742 54.41409,-31.23105 20.6184,-23.8515 32.17855,-47.96465 38.93655,-81.21716 2.29145,-11.275 7.3487,-34.79879 11.23833,-52.27507 3.88961,-17.47628 10.955,-50.22507 15.70085,-72.77511 4.74585,-22.55004 10.39483,-47.45757 12.55331,-55.35008 2.15845,-7.89251 7.48348,-29.5713 11.83338,-48.17508 4.34988,-18.60377 11.74848,-49.96882 16.44133,-69.7001 4.69286,-19.73129 11.6679,-50.63508 15.50011,-68.6751 3.83222,-18.04003 8.86129,-41.56382 11.17572,-52.27508 8.73023,-40.40394 7.12956,-64.42873 -5.50928,-82.69102 -17.30874,-25.00991 -57.16263,-32.98425 -99.58483,-19.92588 -10.78002,3.31829 -23.11662,6.64274 -27.41467,7.38763 -4.29805,0.74491 -21.65216,4.91273 -38.56467,9.26185 -31.20355,8.02413 -66.26976,16.55384 -138.37522,33.65928 -52.76203,12.51661 -92.77428,22.16985 -179.37527,43.27552 -39.46256,9.61748 -87.89388,21.13023 -107.62516,25.5839 -19.73128,4.45366 -40.48756,9.38587 -46.12507,10.96041 -5.63751,1.57458 -17.16878,4.38106 -25.62504,6.23667 -38.84325,8.5236 -65.51681,29.95684 -86.62304,69.605 -12.5638,23.60116 -16.78652,35.90741 -18.98139,55.31753 -0.75227,6.65263 -3.5518,18.78631 -6.22119,26.96376 -2.66937,8.17742 -6.7066,27.70674 -8.97161,43.39849 -2.26499,15.69174 -5.92982,36.30685 -8.14403,45.81136 -2.21421,9.50451 -5.93652,31.11846 -8.27178,48.03098 -2.33528,16.91253 -6.55233,40.27312 -9.37123,51.9124 -2.81888,11.6393 -6.09553,27.78307 -7.28142,35.87505 -1.18588,8.09199 -5.24384,27.62773 -9.01772,43.41276 -12.38513,51.80371 -17.2428,73.48668 -21.58547,96.35014 -2.35571,12.40252 -6.45072,29.46879 -9.10002,37.92505 -2.6493,8.45627 -5.47756,19.52628 -6.28502,24.60004 -0.80748,5.07376 -3.21178,16.60503 -5.34291,25.62504 -7.1734,30.36161 -3.72874,53.94809 8.75606,59.95482 2.62101,1.26104 11.15664,2.35523 18.96803,2.43154 12.03319,0.11745 24.5583,-2.82147 82.00011,-19.24132 z M 522.9003,842.51294 c -10.59825,-4.0493 -21.15472,-13.62799 -25.1086,-22.78297 -4.01976,-9.30745 -7.12068,-33.1963 -5.0198,-38.67112 1.23685,-3.22321 1.81474,-3.24147 7.61722,-0.2409 9.67692,5.00414 29.58562,3.00508 34.86858,-3.50121 3.78789,-4.665 3.95659,-7.12478 2.73115,-39.82218 -3.53404,-94.29723 -3.66712,-111.1293 -1.0535,-133.25021 1.72256,-14.57932 2.80225,-53.86666 3.05459,-111.14843 0.21467,-48.72914 0.98206,-91.75281 1.70534,-95.60819 0.99143,-5.28475 2.53873,-7.24371 6.28749,-7.96032 3.29746,-0.63036 5.41491,0.15558 6.28592,2.33304 0.72239,1.80597 2.24686,19.42737 3.38766,39.15864 2.50796,43.37691 2.02075,351.01419 -0.58112,366.95056 -2.70293,16.55527 -2.45323,18.45003 2.43146,18.45003 6.44792,0 15.55102,-7.38072 21.38846,-17.34159 3.6585,-6.24276 5.77978,-13.97335 7.15478,-26.07426 1.07496,-9.46033 4.33608,-24.08756 7.24693,-32.50495 l 5.29247,-15.30433 -0.23588,-147.0081 c -0.21953,-136.83926 -0.51279,-148.43669 -4.23931,-167.66046 -2.20188,-11.35878 -4.00344,-24.33925 -4.00344,-28.84551 0,-12.91581 -4.48703,-20.91696 -15.80206,-28.1778 -10.86065,-6.96925 -20.96582,-8.42303 -25.69259,-3.69626 -1.56059,1.56059 -6.68676,4.80121 -11.39146,7.20138 -9.57577,4.88517 -13.13186,9.41977 -17.83024,22.73641 -3.32355,9.41995 -9.40754,17.28823 -16.1956,20.94539 -3.68227,1.98388 -3.82878,1.37099 -2.78389,-11.6461 0.80734,-10.0576 3.04946,-17.67456 8.36574,-28.41985 10.19698,-20.61023 19.18564,-30.33564 34.31154,-37.12373 21.36925,-9.58996 42.70658,-4.98878 54.6547,11.78571 9.69126,13.606 11.48206,21.98512 11.14324,52.13863 -0.18901,16.82028 0.47013,27.19482 1.72781,27.19482 1.11833,0 6.52323,-3.22567 12.01086,-7.16814 25.25395,-18.14314 50.96309,-17.53709 61.08501,1.43997 2.62913,4.92922 3.82313,12.98206 4.42079,29.8157 0.45032,12.68439 1.34359,23.06253 1.98501,23.06253 0.64143,0 5.92885,-3.28012 11.74978,-7.28917 12.97211,-8.93422 29.2671,-11.55583 39.36619,-6.33338 12.47223,6.44962 21.77141,30.65891 19.65464,51.16844 -0.63426,6.1453 -0.27685,11.62998 0.80121,12.29627 1.07042,0.66156 6.37546,-1.94629 11.78902,-5.79519 12.31857,-8.75819 21.49839,-11.83263 35.33038,-11.83263 13.51555,0 24.82093,6.85774 32.15071,19.50235 18.47936,31.87871 13.90561,71.60967 -11.06103,96.08414 -20.20433,19.80606 -37.93744,24.82733 -57.05084,16.1544 -14.15161,-6.42144 -14.45166,-6.16669 -14.21487,12.06885 0.264,20.3319 -4.43175,30.88354 -20.1282,45.22921 -12.95548,11.84057 -21.2765,14.27788 -35.92649,10.52319 -5.39694,-1.38319 -10.77034,-1.92297 -11.94092,-1.19953 -1.17056,0.72346 -2.12829,5.71529 -2.12829,11.09293 0,16.08333 -16.16967,36.20423 -35.62841,44.33463 -14.64409,6.11868 -26.35834,3.23699 -39.66622,-9.75782 -4.76825,-4.65607 -9.33353,-7.80159 -10.14507,-6.99003 -0.81156,0.81155 -0.139,5.82777 1.49451,11.14716 1.70628,5.55626 2.97007,17.95839 2.97007,29.14666 0,17.11668 -0.68571,20.8713 -5.66246,31.00534 -6.91671,14.08437 -22.49714,29.06636 -37.25237,35.82154 -13.10961,6.00177 -33.98401,8.08654 -43.7206,4.36644 z M 658.7692,721.81523 c 13.98005,-12.27466 13.30088,-4.88731 13.20235,-143.6066 -0.0492,-69.11547 -0.85668,-129.63395 -1.79458,-134.4855 -2.00505,-10.37144 -9.16798,-18.85404 -15.92086,-18.85404 -2.6345,0 -9.05342,2.00404 -14.26429,4.45345 -7.55596,3.5517 -10.30604,6.33374 -13.58219,13.74004 -4.00443,9.05269 -4.08349,12.5513 -3.13831,138.89545 1.07543,143.75551 0.40132,137.14127 14.60668,143.32029 9.62193,4.18533 12.77549,3.66258 20.8912,-3.46309 z m 70.57145,-54.15601 c 4.45035,-4.02064 9.14686,-10.50778 10.43665,-14.41591 1.56158,-4.73163 2.45593,-32.25407 2.67686,-82.37738 0.3183,-72.21387 0.16298,-75.56323 -3.82532,-82.44675 -2.28638,-3.94625 -7.59733,-8.8685 -11.80211,-10.93833 -7.51358,-3.69859 -7.80012,-3.68824 -16.66486,0.60312 -15.9847,7.73807 -15.75504,6.0566 -14.0064,102.5455 l 1.53038,84.44566 5.75182,4.94716 c 8.30622,7.14423 16.17401,6.42646 25.90298,-2.36307 z m 75.09038,-62.17012 c 20.86172,-9.47518 30.76789,-37.27047 22.22191,-62.35149 -6.36148,-18.66995 -21.88464,-24.65082 -41.20918,-15.87742 -12.4046,5.63174 -17.37205,16.35321 -18.62463,40.19853 -0.76195,14.50522 -0.25307,19.96085 2.3274,24.95091 4.61749,8.92922 14.75869,15.72422 24.88947,16.67692 1.12751,0.10604 5.80527,-1.51283 10.39503,-3.59745 z M 428.17144,784.47351 c -14.88298,-6.45537 -20.28866,-15.25986 -22.01552,-35.85771 -0.65458,-7.80794 -2.114,-14.19624 -3.24315,-14.19624 -1.12914,0 -6.76099,3.08738 -12.51519,6.86087 -14.75549,9.67627 -22.6984,12.04038 -32.0201,9.53029 -16.74505,-4.50896 -22.48421,-14.30861 -22.50573,-38.4287 -0.008,-8.26312 -0.84635,-12.81251 -2.36282,-12.81251 -1.29324,0 -6.33042,3.26055 -11.19373,7.24564 -18.66797,15.297 -38.8163,18.47099 -53.91266,8.49291 -10.97906,-7.25671 -15.88062,-17.86214 -17.69601,-38.28859 -2.60568,-29.31863 5.4523,-54.51961 23.87946,-74.68186 15.13498,-16.56008 25.35158,-19.26827 57.17431,-15.15562 5.03898,0.65123 5.14507,0.36974 6.31982,-16.76773 2.77478,-40.47869 29.03981,-69.1009 56.38454,-61.44487 4.79702,1.34308 9.58093,1.91105 10.63092,1.26211 1.05002,-0.64895 2.46793,-7.84581 3.15098,-15.99307 2.95639,-35.26398 30.98993,-67.55232 56.18498,-64.7125 20.01353,2.25583 28.52814,20.37856 26.67063,56.76658 -0.60649,11.88094 -0.0942,66.80427 1.13836,122.05186 2.88294,129.21989 3.01029,124.23451 -3.59535,140.73514 -6.40546,16.00055 -16.42586,26.98245 -30.80969,33.76604 -11.79514,5.56275 -19.60428,5.99129 -29.66405,1.62796 z m 31.08004,-29.04142 c 9.69243,-10.39187 9.84924,-11.55689 10.05302,-74.69035 0.10684,-33.05355 0.86856,-92.84616 1.69297,-132.87247 1.67,-81.0786 1.34842,-83.85654 -10.17236,-87.87273 -3.67203,-1.28005 -7.56877,-2.32741 -8.65942,-2.32741 -1.09061,0 -7.17984,5.30439 -13.53159,11.78753 l -11.54864,11.78752 0.29762,109.67516 c 0.16381,60.32134 1.14246,120.5127 2.175,133.75854 1.75548,22.52012 2.26005,24.48285 7.77341,30.23754 7.51636,7.84541 14.92173,8.01995 21.91999,0.51667 z m -66.17382,-31.07982 c 9.97867,-9.97867 9.88811,-9.13896 11.37495,-105.45282 l 1.10293,-71.44505 -6.96757,-6.96758 c -8.3131,-8.31309 -15.44108,-8.97979 -25.17888,-2.35507 -11.97149,8.14433 -13.4868,14.26537 -15.09815,60.9876 -1.7311,50.19476 -0.42448,109.49647 2.58741,117.43084 2.69819,7.10794 13.41366,15.76639 19.54953,15.79663 2.65152,0.0118 8.02103,-3.38579 12.62978,-7.99455 z m -77.99649,-31.02799 c 4.09977,-2.30737 9.76037,-7.61176 12.57913,-11.78753 4.76014,-7.05178 5.12501,-9.34356 5.12501,-32.19233 0,-28.40455 -2.39416,-35.18922 -14.43346,-40.90225 -8.96051,-4.25203 -13.70858,-3.27084 -26.65885,5.50912 -14.78147,10.02145 -18.35778,18.53162 -18.35778,43.68415 0,23.58297 2.25674,28.98877 14.88538,35.6562 9.90789,5.23101 17.60743,5.24036 26.86057,0.0326 z M 794.036,410.61331 c -9.20805,-3.80871 -17.42502,-18.32246 -17.42502,-30.77811 0,-16.97085 14.21589,-41.71706 27.61872,-48.07714 9.63541,-4.5723 27.17843,-4.18591 35.31935,0.7779 10.38047,6.32935 13.56952,14.63965 12.43025,32.39194 -0.87416,13.62137 -1.80406,16.33772 -9.14877,26.72484 -9.92128,14.03098 -21.70478,20.97373 -35.27943,20.78638 -5.17831,-0.0716 -11.26009,-0.89309 -13.5151,-1.82581 z M 58.676358,915.84483 c -1.100155,-9.38225 -1.509742,-67.71751 -0.957167,-136.32521 1.047983,-130.12058 1.500527,-135.50449 12.760144,-151.81041 2.766819,-4.00686 5.030588,-8.19368 5.030588,-9.30407 0,-1.11035 1.844992,-5.63771 4.100003,-10.06077 2.254999,-4.42307 4.100004,-9.67864 4.100004,-11.67906 0,-14.29639 14.59233,-43.46058 26.94712,-53.85645 9.00297,-7.5755 30.45297,-33.77782 30.45297,-37.19993 0,-5.5668 21.33796,-35.63977 25.28782,-35.63977 1.33429,0 3.53526,-1.77625 4.89105,-3.9472 1.35577,-2.17096 4.57582,-4.24658 7.15562,-4.61251 4.13184,-0.58605 5.33983,-3.25227 10.14106,-22.38263 5.81067,-23.15252 14.6013,-42.53629 30.66109,-67.60924 13.09335,-20.44168 41.43356,-44.50728 67.93288,-57.68646 19.96037,-9.9271 7.90595,-6.72732 233.18105,-61.89638 25.36879,-6.21273 59.96259,-14.55531 76.87512,-18.53905 16.91253,-3.98376 47.81632,-11.34399 68.67511,-16.35608 65.19205,-15.66479 125.13845,-29.79239 149.65021,-35.26811 12.96628,-2.89658 24.42581,-6.07031 25.46566,-7.05275 2.3734,-2.24241 1.65849,-22.67539 -1.19198,-34.06763 -4.60589,-18.40793 -26.43425,-34.96116 -48.74544,-36.96534 -8.84023,-0.7941 -19.46671,0.89634 -47.27835,7.52092 -19.73127,4.69988 -47.86756,11.3289 -62.52508,14.7311 -14.65753,3.40222 -57.09259,13.46509 -94.30015,22.36197 -127.02134,30.3726 -165.30276,38.86895 -175.12885,38.86895 -3.05375,0 -10.56282,-1.46488 -16.68687,-3.25532 -10.10257,-2.95357 -13.79951,-5.96805 -39.8868,-32.52354 -16.31414,-16.60691 -32.51404,-31.18735 -37.44812,-33.70456 -13.62297,-6.94989 -26.42788,-8.62099 -41.65183,-5.43574 -7.23986,1.51476 -18.68368,3.43546 -25.43072,4.26817 -6.74702,0.83271 -19.5857,3.69549 -28.53037,6.36173 -8.94469,2.66624 -24.16595,6.26231 -33.82506,7.99124 -16.48163,2.95016 -47.51455,10.547 -63.68708,15.59057 -10.61739,3.31113 -28.295233,15.53793 -31.603721,21.85858 -1.590294,3.03812 -5.598197,8.53065 -8.906449,12.20564 -3.308278,3.67498 -7.50008,9.67124 -9.315132,13.32502 -6.960208,14.01114 -17.57675,39.79422 -19.617753,47.6433 -1.434801,5.51773 -2.124949,118.10892 -2.109887,344.2021 0.02045,296.61278 0.387722,336.70858 3.138785,342.02852 1.714012,3.31455 3.383507,5.71008 3.709987,5.32343 0.326493,-0.38664 -0.271778,-8.08301 -1.329462,-17.10303 z"
         id="path2" />
    </g>
  </g>
</svg>
